<?xml version="1.0" standalone="no"?>
<!DOCTYPE svg PUBLIC "-//W3C//DTD SVG 20010904//EN"
 "http://www.w3.org/TR/2001/REC-SVG-20010904/DTD/svg10.dtd">
<svg version="1.0" xmlns="http://www.w3.org/2000/svg"
 width="820.000000pt" height="820.000000pt" viewBox="0 0 820.000000 820.000000"
 preserveAspectRatio="xMidYMid meet">
<metadata>
Created by potrace 1.14, written by Peter Selinger 2001-2017
</metadata>
<g transform="translate(0.000000,820.000000) scale(0.100000,-0.100000)"
fill="#000000" stroke="none">
<path d="M5805 8099 c-16 -5 -43 -11 -60 -14 -70 -11 -92 -16 -135 -25 -25 -6
-56 -12 -70 -14 -14 -3 -25 -5 -25 -6 0 -1 -9 -3 -20 -4 -11 -1 -38 -6 -60
-11 -22 -4 -47 -9 -55 -11 -18 -3 -53 -12 -60 -14 -3 -1 -8 -2 -13 -1 -4 1
-28 -4 -55 -10 -26 -6 -62 -13 -80 -14 -18 -2 -36 -6 -40 -9 -6 -4 -55 -13
-117 -22 -11 -1 -20 -3 -20 -4 0 -2 -9 -4 -20 -5 -11 -1 -47 -8 -80 -15 -33
-7 -67 -14 -75 -15 -8 -2 -15 -4 -15 -5 0 -1 -13 -3 -30 -5 -24 -3 -81 -14
-105 -20 -6 -1 -65 -13 -96 -19 -12 -2 -37 -7 -55 -10 -19 -3 -45 -8 -59 -12
-14 -3 -34 -7 -46 -9 -11 -1 -47 -9 -80 -16 -32 -7 -66 -13 -74 -15 -52 -7
-100 -17 -133 -25 -21 -6 -55 -13 -75 -16 -68 -10 -77 -11 -77 -13 0 -2 -18
-6 -65 -14 -19 -3 -46 -8 -60 -11 -14 -3 -36 -7 -50 -10 -43 -8 -74 -14 -100
-20 -37 -8 -63 -13 -106 -19 -22 -4 -55 -11 -74 -16 -20 -5 -53 -12 -75 -16
-52 -7 -74 -12 -105 -19 -14 -4 -36 -8 -50 -10 -67 -12 -147 -27 -160 -31 -8
-3 -16 -4 -17 -2 -3 6 -53 -54 -54 -65 -1 -7 -2 -25 -4 -42 -2 -16 -6 -82 -10
-145 -3 -63 -8 -137 -10 -165 -3 -42 -6 -101 -19 -345 0 -14 -5 -25 -11 -25
-13 1 -101 15 -128 22 -12 2 -31 6 -42 7 -24 3 -102 17 -130 23 -11 2 -38 7
-60 9 -22 3 -47 8 -55 11 -8 3 -24 7 -35 9 -11 1 -49 8 -85 14 -36 6 -74 12
-85 14 -11 2 -33 6 -50 9 -16 3 -48 9 -70 13 -58 9 -77 12 -105 18 -13 3 -42
9 -65 12 -22 4 -49 8 -60 10 -11 1 -29 5 -40 7 -21 5 -132 24 -175 31 -14 3
-25 5 -25 6 0 2 -34 8 -85 15 -25 3 -54 8 -65 10 -32 7 -77 16 -110 20 -16 3
-52 9 -80 15 -27 6 -63 13 -80 15 -16 2 -42 7 -57 10 -47 9 -81 15 -143 25
-33 5 -70 12 -81 14 -12 2 -37 7 -55 10 -19 3 -44 8 -55 10 -24 5 -89 16 -119
21 -11 2 -35 6 -52 9 -18 3 -45 8 -60 11 -16 3 -39 7 -53 10 -25 5 -41 8 -140
25 -30 5 -71 13 -90 17 -19 4 -61 7 -93 6 -48 0 -66 -6 -100 -30 -85 -59 -115
-173 -67 -257 12 -22 33 -60 47 -85 13 -25 33 -59 43 -76 11 -16 26 -43 34
-60 8 -16 31 -57 51 -90 19 -33 40 -69 46 -80 5 -11 15 -29 22 -40 7 -11 32
-56 57 -100 24 -44 50 -86 57 -93 7 -7 13 -17 13 -22 0 -5 23 -48 51 -97 28
-48 61 -106 74 -128 12 -22 31 -56 42 -75 11 -19 35 -62 53 -95 18 -33 40 -68
48 -77 8 -10 12 -18 9 -18 -5 0 23 -49 50 -85 5 -6 9 -17 11 -25 2 -8 7 -17
11 -20 3 -3 12 -16 18 -30 7 -14 26 -47 42 -75 16 -27 42 -72 56 -100 15 -27
33 -57 39 -65 7 -8 25 -40 41 -70 15 -30 36 -67 47 -82 10 -14 18 -28 18 -31
0 -3 23 -44 50 -92 28 -48 50 -90 50 -94 0 -4 10 -18 22 -31 13 -14 22 -26 20
-28 -2 -1 17 -38 42 -82 25 -43 46 -83 46 -89 0 -5 4 -11 8 -13 9 -4 102 -167
102 -179 0 -5 5 -9 10 -9 6 0 10 -4 10 -8 0 -12 103 -196 112 -200 5 -2 8 -7
8 -12 0 -5 34 -67 75 -139 41 -72 75 -134 75 -138 0 -3 6 -14 14 -22 7 -9 27
-41 43 -71 42 -77 108 -193 192 -336 22 -39 41 -76 41 -82 0 -6 4 -12 8 -14 4
-1 23 -30 41 -63 55 -98 69 -122 112 -198 23 -40 53 -92 67 -117 35 -61 53
-94 97 -170 21 -36 47 -83 59 -105 11 -22 24 -41 29 -43 4 -2 7 -7 7 -12 0 -5
23 -48 51 -97 29 -48 63 -108 77 -133 28 -51 89 -158 103 -180 5 -8 18 -33 30
-55 12 -22 27 -43 33 -47 6 -4 8 -8 4 -8 -4 0 22 -50 57 -111 36 -60 65 -114
65 -120 0 -5 4 -9 9 -9 5 0 15 -15 22 -32 18 -44 92 -172 101 -176 5 -2 8 -8
8 -13 0 -5 25 -53 57 -107 31 -53 63 -110 71 -127 9 -16 18 -32 21 -35 4 -3
12 -16 18 -30 7 -14 25 -47 41 -75 16 -27 42 -72 57 -100 16 -27 48 -83 72
-123 24 -41 43 -75 43 -77 0 -2 29 -54 65 -115 36 -61 65 -115 65 -121 0 -5 5
-9 11 -9 5 0 7 -4 4 -10 -3 -5 -1 -10 4 -10 6 0 11 -4 11 -9 0 -8 80 -151 90
-161 3 -3 13 -21 22 -40 21 -43 71 -133 78 -140 9 -9 51 -84 63 -113 6 -15 15
-27 19 -27 4 0 8 -6 8 -14 0 -7 7 -19 15 -26 8 -7 13 -15 11 -19 -8 -13 65
-101 103 -126 72 -45 180 -30 242 33 14 15 43 59 64 97 20 39 45 84 54 100 23
38 64 112 109 195 19 36 39 66 44 68 4 2 8 12 8 23 0 10 5 19 10 19 6 0 10 4
10 9 0 7 105 201 130 241 6 8 16 26 22 40 7 14 15 27 18 30 4 3 15 23 27 45
19 37 43 81 90 165 11 19 48 87 84 150 35 63 66 117 69 120 3 3 14 23 25 45
11 22 29 56 41 75 11 19 42 76 69 125 26 50 53 97 60 105 7 8 16 25 19 38 4
12 12 22 18 22 6 0 8 3 5 7 -4 3 0 18 9 32 10 14 56 95 104 180 48 86 97 174
110 196 12 22 41 74 63 115 22 41 43 77 46 80 3 3 16 25 29 50 26 50 61 113
116 208 20 35 36 66 36 69 0 3 9 18 21 34 11 16 17 29 12 29 -4 0 -3 4 3 8 6
4 21 27 34 52 22 40 71 127 122 215 10 17 23 42 29 58 6 15 15 27 21 27 5 0 7
4 3 9 -3 5 0 16 7 23 7 8 18 23 24 33 6 11 24 45 41 75 77 141 102 185 181
325 86 153 113 201 157 280 47 85 78 140 116 208 22 38 39 73 39 78 0 5 5 9
10 9 6 0 10 6 10 13 0 7 11 29 25 50 14 20 23 37 20 37 -4 0 3 12 14 26 12 15
21 32 21 38 0 7 8 21 18 32 17 19 49 81 50 98 0 5 4 12 9 15 5 3 46 71 90 151
44 80 91 163 103 185 118 209 170 305 170 314 0 6 3 11 8 11 4 0 23 30 42 68
19 37 38 69 43 70 4 2 7 7 7 12 0 4 38 76 85 159 47 83 85 154 85 158 0 3 6
14 14 22 7 9 29 45 48 81 47 88 98 179 119 215 10 17 35 62 55 100 20 39 40
72 43 75 4 3 14 20 22 38 8 17 18 32 22 32 5 0 6 4 2 9 -3 5 0 15 7 23 7 7 22
31 34 53 11 22 31 58 44 80 45 80 108 191 137 245 17 30 41 73 53 95 45 76 28
189 -36 249 -61 56 -131 63 -289 29 -16 -4 -34 -8 -40 -9 -5 -1 -30 -5 -55 -9
-25 -3 -65 -11 -90 -17 -25 -5 -61 -12 -80 -14 -19 -2 -46 -7 -60 -10 -14 -4
-34 -8 -45 -9 -11 -2 -33 -6 -50 -9 -16 -4 -46 -9 -65 -12 -19 -3 -93 -17
-165 -31 -71 -13 -141 -26 -155 -28 -59 -9 -111 -18 -170 -31 -14 -3 -43 -7
-65 -10 -21 -3 -43 -8 -47 -10 -4 -3 -24 -7 -45 -9 -21 -3 -49 -7 -63 -10 -14
-2 -38 -7 -55 -10 -16 -2 -64 -12 -105 -20 -41 -9 -91 -17 -110 -20 -19 -2
-46 -6 -60 -9 -14 -3 -36 -8 -50 -11 -14 -3 -38 -7 -55 -10 -26 -3 -87 -14
-220 -40 -16 -3 -41 -8 -55 -10 -14 -2 -44 -8 -67 -13 -24 -6 -43 -9 -43 -7 0
1 17 62 39 136 21 74 53 186 70 249 18 63 34 120 35 125 2 6 4 13 5 17 1 4 8
26 16 48 8 22 15 42 15 45 0 3 2 10 5 17 14 45 145 515 145 521 0 5 -7 24 -16
42 -23 50 -80 65 -159 44z"/>
</g>
</svg>
